{"scene":0,"scenes":[{"nodes":[0]}],"asset":{"version":"2.0","generator":"https://github.com/mikedh/trimesh"},"accessors":[{"componentType":5125,"type":"SCALAR","bufferView":0,"count":274008,"max":[50323],"min":[0]},{"componentType":5126,"type":"VEC3","byteOffset":0,"bufferView":1,"count":50324,"max":[24.758277893066406,6.253022193908691,29.155847549438477],"min":[-24.758277893066406,-4.159091949462891,-26.40390968322754]},{"componentType":5121,"normalized":true,"type":"VEC4","byteOffset":0,"bufferView":2,"count":50324,"max":[1,1,1,1],"min":[0,0,0,0]},{"componentType":5126,"type":"VEC2","byteOffset":0,"bufferView":3,"count":50324,"max":[1.0000001192092896,1.0000001192092896],"min":[0.0,0.0]},{"componentType":5126,"count":50324,"type":"VEC3","byteOffset":0,"bufferView":4,"max":[0.9999625086784363,0.9999964237213135,0.9994058012962341],"min":[-0.9999839067459106,-0.9999756217002869,-0.999999463558197]},{"componentType":5125,"type":"SCALAR","bufferView":5,"count":272430,"max":[45406],"min":[0]},{"componentType":5126,"type":"VEC3","byteOffset":0,"bufferView":6,"count":45407,"max":[25.55147361755371,5.30509614944458,39.47755432128906],"min":[-25.48138427734375,-2.679231643676758,-14.020295143127441]},{"componentType":5121,"normalized":true,"type":"VEC4","byteOffset":0,"bufferView":7,"count":45407,"max":[1,1,1,1],"min":[0,0,0,0]},{"componentType":5126,"count":45407,"type":"VEC3","byteOffset":0,"bufferView":8,"max":[0.9999998807907104,0.9999999403953552,0.9999974370002747],"min":[-0.9999998807907104,-0.9999999403953552,-0.9999998211860657]}],"meshes":[{"name":"Male__0","extras":{"units":"meters","from_gltf_primitive":false},"primitives":[{"attributes":{"POSITION":1,"COLOR_0":2,"TEXCOORD_0":3,"NORMAL":4},"indices":0,"mode":4,"material":0}]},{"name":"Female__0","extras":{"units":"meters","from_gltf_primitive":false},"primitives":[{"attributes":{"POSITION":6,"COLOR_0":7,"NORMAL":8},"indices":5,"mode":4,"material":0}]}],"materials":[{"pbrMetallicRoughness":{"roughnessFactor":0.5601227181,"metallicFactor":0.0},"name":"Scene_-_Root","doubleSided":true}],"nodes":[{"name":"world","children":[1]},{"name":"Sketchfab_model","children":[2],"matrix":[1.0,0.0,0.0,0.0,0.0,2.220446049250313e-16,-1.0,0.0,0.0,1.0,2.220446049250313e-16,0.0,0.0,0.0,0.0,1.0]},{"name":"b43c95e9b87449eca35a9616242bd1e7.fbx","children":[3],"matrix":[1.0,0.0,0.0,0.0,0.0,0.0,1.0,0.0,0.0,-1.0,0.0,0.0,0.0,0.0,0.0,1.0]},{"name":"RootNode","children":[4,6]},{"name":"Female","children":[5],"matrix":[15.017867088317871,0.0,0.0,0.0,-0.0,-6.564518462131758e-07,-15.017867088317857,0.0,0.0,15.017867088317857,-6.564518462131758e-07,0.0,-399.2810974121094,223.9022674560547,0.0,1.0]},{"name":"Female__0","mesh":1},{"name":"Male","children":[7],"matrix":[15.137251853942871,0.0,0.0,0.0,0.0,-6.616703202710013e-07,-15.137251853942855,0.0,0.0,15.137251853942855,-6.616703202710013e-07,0.0,452.23040771484375,409.7821350097656,0.0,1.0]},{"name":"Male__0","mesh":0}],"buffers":[{"uri":"gltf_buffer_0.bin","byteLength":1096032},{"uri":"gltf_buffer_1.bin","byteLength":603888},{"uri":"gltf_buffer_2.bin","byteLength":201296},{"uri":"gltf_buffer_3.bin","byteLength":402592},{"uri":"gltf_buffer_4.bin","byteLength":603888},{"uri":"gltf_buffer_5.bin","byteLength":1089720},{"uri":"gltf_buffer_6.bin","byteLength":544884},{"uri":"gltf_buffer_7.bin","byteLength":181628},{"uri":"gltf_buffer_8.bin","byteLength":544884}],"bufferViews":[{"buffer":0,"byteOffset":0,"byteLength":1096032},{"buffer":1,"byteOffset":0,"byteLength":603888},{"buffer":2,"byteOffset":0,"byteLength":201296},{"buffer":3,"byteOffset":0,"byteLength":402592},{"buffer":4,"byteOffset":0,"byteLength":603888},{"buffer":5,"byteOffset":0,"byteLength":1089720},{"buffer":6,"byteOffset":0,"byteLength":544884},{"buffer":7,"byteOffset":0,"byteLength":181628},{"buffer":8,"byteOffset":0,"byteLength":544884}]}